{
    "asset" : {
        "generator" : "Khronos glTF Blender I/O v1.6.16",
        "version" : "2.0"
    },
    "scene" : 0,
    "scenes" : [
        {
            "name" : "Scene",
            "nodes" : [
                0
            ]
        }
    ],
    "nodes" : [
        {
            "mesh" : 0,
            "name" : "aerie",
            "rotation" : [
                0.7071068286895752,
                0,
                0,
                0.7071067094802856
            ]
        }
    ],
    "materials" : [
        {
            "doubleSided" : true,
            "name" : "Material01",
            "pbrMetallicRoughness" : {
                "baseColorTexture" : {
                    "index" : 0
                },
                "metallicFactor" : 0
            }
        },
        {
            "doubleSided" : true,
            "name" : "Material02",
            "pbrMetallicRoughness" : {
                "baseColorTexture" : {
                    "index" : 1
                },
                "metallicFactor" : 0
            }
        },
        {
            "doubleSided" : true,
            "name" : "rock",
            "pbrMetallicRoughness" : {
                "baseColorTexture" : {
                    "index" : 2
                },
                "metallicFactor" : 0
            }
        }
    ],
    "meshes" : [
        {
            "name" : "aerie",
            "primitives" : [
                {
                    "attributes" : {
                        "POSITION" : 0,
                        "NORMAL" : 1,
                        "TEXCOORD_0" : 2
                    },
                    "indices" : 3,
                    "material" : 0
                },
                {
                    "attributes" : {
                        "POSITION" : 4,
                        "NORMAL" : 5,
                        "TEXCOORD_0" : 6
                    },
                    "indices" : 7,
                    "material" : 1
                },
                {
                    "attributes" : {
                        "POSITION" : 8,
                        "NORMAL" : 9,
                        "TEXCOORD_0" : 10
                    },
                    "indices" : 11,
                    "material" : 2
                }
            ]
        }
    ],
    "textures" : [
        {
            "sampler" : 0,
            "source" : 0
        },
        {
            "sampler" : 0,
            "source" : 1
        },
        {
            "sampler" : 0,
            "source" : 2
        }
    ],
    "images" : [
        {
            "bufferView" : 4,
            "mimeType" : "image/png",
            "name" : "thatch_border"
        },
        {
            "bufferView" : 9,
            "mimeType" : "image/jpeg",
            "name" : "eggs"
        },
        {
            "bufferView" : 14,
            "mimeType" : "image/jpeg",
            "name" : "stone03"
        }
    ],
    "accessors" : [
        {
            "bufferView" : 0,
            "componentType" : 5126,
            "count" : 36,
            "max" : [
                14.967435836791992,
                21.934534072875977,
                -41.84882354736328
            ],
            "min" : [
                -14.254191398620605,
                -5.776159763336182,
                -60.50499725341797
            ],
            "type" : "VEC3"
        },
        {
            "bufferView" : 1,
            "componentType" : 5126,
            "count" : 36,
            "type" : "VEC3"
        },
        {
            "bufferView" : 2,
            "componentType" : 5126,
            "count" : 36,
            "type" : "VEC2"
        },
        {
            "bufferView" : 3,
            "componentType" : 5123,
            "count" : 63,
            "type" : "SCALAR"
        },
        {
            "bufferView" : 5,
            "componentType" : 5126,
            "count" : 156,
            "max" : [
                6.20454216003418,
                11.540752410888672,
                -48.701026916503906
            ],
            "min" : [
                -4.842498779296875,
                0.601036012172699,
                -57.61940002441406
            ],
            "type" : "VEC3"
        },
        {
            "bufferView" : 6,
            "componentType" : 5126,
            "count" : 156,
            "type" : "VEC3"
        },
        {
            "bufferView" : 7,
            "componentType" : 5126,
            "count" : 156,
            "type" : "VEC2"
        },
        {
            "bufferView" : 8,
            "componentType" : 5123,
            "count" : 576,
            "type" : "SCALAR"
        },
        {
            "bufferView" : 10,
            "componentType" : 5126,
            "count" : 48,
            "max" : [
                17.637475967407227,
                19.90521812438965,
                29.538150787353516
            ],
            "min" : [
                -16.573808670043945,
                -18.661176681518555,
                -51.93361282348633
            ],
            "type" : "VEC3"
        },
        {
            "bufferView" : 11,
            "componentType" : 5126,
            "count" : 48,
            "type" : "VEC3"
        },
        {
            "bufferView" : 12,
            "componentType" : 5126,
            "count" : 48,
            "type" : "VEC2"
        },
        {
            "bufferView" : 13,
            "componentType" : 5123,
            "count" : 162,
            "type" : "SCALAR"
        }
    ],
    "bufferViews" : [
        {
            "buffer" : 0,
            "byteLength" : 432,
            "byteOffset" : 0
        },
        {
            "buffer" : 0,
            "byteLength" : 432,
            "byteOffset" : 432
        },
        {
            "buffer" : 0,
            "byteLength" : 288,
            "byteOffset" : 864
        },
        {
            "buffer" : 0,
            "byteLength" : 126,
            "byteOffset" : 1152
        },
        {
            "buffer" : 0,
            "byteLength" : 166923,
            "byteOffset" : 1280
        },
        {
            "buffer" : 0,
            "byteLength" : 1872,
            "byteOffset" : 168204
        },
        {
            "buffer" : 0,
            "byteLength" : 1872,
            "byteOffset" : 170076
        },
        {
            "buffer" : 0,
            "byteLength" : 1248,
            "byteOffset" : 171948
        },
        {
            "buffer" : 0,
            "byteLength" : 1152,
            "byteOffset" : 173196
        },
        {
            "buffer" : 0,
            "byteLength" : 2677,
            "byteOffset" : 174348
        },
        {
            "buffer" : 0,
            "byteLength" : 576,
            "byteOffset" : 177028
        },
        {
            "buffer" : 0,
            "byteLength" : 576,
            "byteOffset" : 177604
        },
        {
            "buffer" : 0,
            "byteLength" : 384,
            "byteOffset" : 178180
        },
        {
            "buffer" : 0,
            "byteLength" : 324,
            "byteOffset" : 178564
        },
        {
            "buffer" : 0,
            "byteLength" : 50506,
            "byteOffset" : 178888
        }
    ],
    "samplers" : [
        {
            "magFilter" : 9729,
            "minFilter" : 9987
        }
    ],
    "buffers" : [
        {
            "byteLength" : 229396,
            "uri" : "data:application/octet-stream;base64,"
        }
    ]
}
