{
  "asset": {
    "generator": "Khronos glTF Blender I/O v1.6.16",
    "version": "2.0"
  },
  "scene": 0,
  "scenes": [
    {
      "name": "Scene",
      "nodes": [0]
    }
  ],
  "nodes": [
    {
      "mesh": 0,
      "name": "palm05",
      "rotation": [0.7071068286895752, 0, 0, 0.7071067094802856]
    }
  ],
  "materials": [
    {
      "doubleSided": true,
      "alphaMode": "MASK",
      "alphaCutoff": 0.5,
      "name": "Material01",
      "pbrMetallicRoughness": {
        "baseColorTexture": {
          "index": 0
        },
        "metallicFactor": 0
      }
    },
    {
      "doubleSided": true,
      "name": "Material02",
      "pbrMetallicRoughness": {
        "baseColorTexture": {
          "index": 1
        },
        "metallicFactor": 0
      }
    }
  ],
  "meshes": [
    {
      "name": "palm05",
      "primitives": [
        {
          "attributes": {
            "POSITION": 0,
            "NORMAL": 1,
            "TEXCOORD_0": 2
          },
          "indices": 3,
          "material": 0
        },
        {
          "attributes": {
            "POSITION": 4,
            "NORMAL": 5,
            "TEXCOORD_0": 6
          },
          "indices": 7,
          "material": 1
        }
      ]
    }
  ],
  "textures": [
    {
      "sampler": 0,
      "source": 0
    },
    {
      "sampler": 0,
      "source": 1
    }
  ],
  "images": [
    {
      "bufferView": 4,
      "mimeType": "image/png",
      "name": "leaf"
    },
    {
      "bufferView": 9,
      "mimeType": "image/jpeg",
      "name": "trunk"
    }
  ],
  "accessors": [
    {
      "bufferView": 0,
      "componentType": 5126,
      "count": 132,
      "max": [35.08370590209961, 83.28776550292969, -35.96597671508789],
      "min": [-35.2017707824707, 23.024412155151367, -79.83820343017578],
      "type": "VEC3"
    },
    {
      "bufferView": 1,
      "componentType": 5126,
      "count": 132,
      "type": "VEC3"
    },
    {
      "bufferView": 2,
      "componentType": 5126,
      "count": 132,
      "type": "VEC2"
    },
    {
      "bufferView": 3,
      "componentType": 5123,
      "count": 396,
      "type": "SCALAR"
    },
    {
      "bufferView": 5,
      "componentType": 5126,
      "count": 59,
      "max": [4.771975994110107, 56.034149169921875, 7.436964988708496],
      "min": [-4.764059066772461, -5.207053184509277, -59.69722366333008],
      "type": "VEC3"
    },
    {
      "bufferView": 6,
      "componentType": 5126,
      "count": 59,
      "type": "VEC3"
    },
    {
      "bufferView": 7,
      "componentType": 5126,
      "count": 59,
      "type": "VEC2"
    },
    {
      "bufferView": 8,
      "componentType": 5123,
      "count": 264,
      "type": "SCALAR"
    }
  ],
  "bufferViews": [
    {
      "buffer": 0,
      "byteLength": 1584,
      "byteOffset": 0
    },
    {
      "buffer": 0,
      "byteLength": 1584,
      "byteOffset": 1584
    },
    {
      "buffer": 0,
      "byteLength": 1056,
      "byteOffset": 3168
    },
    {
      "buffer": 0,
      "byteLength": 792,
      "byteOffset": 4224
    },
    {
      "buffer": 0,
      "byteLength": 1359749,
      "byteOffset": 5016
    },
    {
      "buffer": 0,
      "byteLength": 708,
      "byteOffset": 1364768
    },
    {
      "buffer": 0,
      "byteLength": 708,
      "byteOffset": 1365476
    },
    {
      "buffer": 0,
      "byteLength": 472,
      "byteOffset": 1366184
    },
    {
      "buffer": 0,
      "byteLength": 528,
      "byteOffset": 1366656
    },
    {
      "buffer": 0,
      "byteLength": 57324,
      "byteOffset": 1367184
    }
  ],
  "samplers": [
    {
      "magFilter": 9729,
      "minFilter": 9987
    }
  ],
  "buffers": [
    {
      "byteLength": 1424508,
      "uri": "data:application/octet-stream;base64,"
    }
  ]
}
