{
  "asset": {
    "generator": "Khronos glTF Blender I/O v1.6.16",
    "version": "2.0"
  },
  "scene": 0,
  "scenes": [
    {
      "name": "Scene",
      "nodes": [0]
    }
  ],
  "nodes": [
    {
      "mesh": 0,
      "name": "palm04",
      "rotation": [0.7071068286895752, 0, 0, 0.7071067094802856]
    }
  ],
  "materials": [
    {
      "doubleSided": true,
      "alphaMode": "MASK",
      "alphaCutoff": 0.5,
      "name": "Material01",
      "pbrMetallicRoughness": {
        "baseColorTexture": {
          "index": 0
        },
        "metallicFactor": 0
      }
    },
    {
      "doubleSided": true,
      "name": "Material02",
      "pbrMetallicRoughness": {
        "baseColorTexture": {
          "index": 1
        },
        "metallicFactor": 0
      }
    }
  ],
  "meshes": [
    {
      "name": "palm04",
      "primitives": [
        {
          "attributes": {
            "POSITION": 0,
            "NORMAL": 1,
            "TEXCOORD_0": 2
          },
          "indices": 3,
          "material": 0
        },
        {
          "attributes": {
            "POSITION": 4,
            "NORMAL": 5,
            "TEXCOORD_0": 6
          },
          "indices": 7,
          "material": 1
        }
      ]
    }
  ],
  "textures": [
    {
      "sampler": 0,
      "source": 0
    },
    {
      "sampler": 0,
      "source": 1
    }
  ],
  "images": [
    {
      "bufferView": 4,
      "mimeType": "image/png",
      "name": "leaf"
    },
    {
      "bufferView": 9,
      "mimeType": "image/jpeg",
      "name": "trunk"
    }
  ],
  "accessors": [
    {
      "bufferView": 0,
      "componentType": 5126,
      "count": 352,
      "max": [31.22271156311035, 48.20806121826172, -24.363121032714844],
      "min": [-34.706478118896484, -41.2840461730957, -69.70304107666016],
      "type": "VEC3"
    },
    {
      "bufferView": 1,
      "componentType": 5126,
      "count": 352,
      "type": "VEC3"
    },
    {
      "bufferView": 2,
      "componentType": 5126,
      "count": 352,
      "type": "VEC2"
    },
    {
      "bufferView": 3,
      "componentType": 5123,
      "count": 1056,
      "type": "SCALAR"
    },
    {
      "bufferView": 5,
      "componentType": 5126,
      "count": 73,
      "max": [3.668034076690674, 13.51656436920166, 8.186817169189453],
      "min": [-3.668034076690674, -19.31375503540039, -53.88711166381836],
      "type": "VEC3"
    },
    {
      "bufferView": 6,
      "componentType": 5126,
      "count": 73,
      "type": "VEC3"
    },
    {
      "bufferView": 7,
      "componentType": 5126,
      "count": 73,
      "type": "VEC2"
    },
    {
      "bufferView": 8,
      "componentType": 5123,
      "count": 288,
      "type": "SCALAR"
    }
  ],
  "bufferViews": [
    {
      "buffer": 0,
      "byteLength": 4224,
      "byteOffset": 0
    },
    {
      "buffer": 0,
      "byteLength": 4224,
      "byteOffset": 4224
    },
    {
      "buffer": 0,
      "byteLength": 2816,
      "byteOffset": 8448
    },
    {
      "buffer": 0,
      "byteLength": 2112,
      "byteOffset": 11264
    },
    {
      "buffer": 0,
      "byteLength": 1359749,
      "byteOffset": 13376
    },
    {
      "buffer": 0,
      "byteLength": 876,
      "byteOffset": 1373128
    },
    {
      "buffer": 0,
      "byteLength": 876,
      "byteOffset": 1374004
    },
    {
      "buffer": 0,
      "byteLength": 584,
      "byteOffset": 1374880
    },
    {
      "buffer": 0,
      "byteLength": 576,
      "byteOffset": 1375464
    },
    {
      "buffer": 0,
      "byteLength": 57324,
      "byteOffset": 1376040
    }
  ],
  "samplers": [
    {
      "magFilter": 9729,
      "minFilter": 9987
    }
  ],
  "buffers": [
    {
      "byteLength": 1433364,
      "uri": "data:application/octet-stream;base64,"
    }
  ]
}
