{
  "asset": {
    "generator": "Khronos glTF Blender I/O v1.6.16",
    "version": "2.0"
  },
  "scene": 0,
  "scenes": [
    {
      "name": "Scene",
      "nodes": [0]
    }
  ],
  "nodes": [
    {
      "mesh": 0,
      "name": "palm02",
      "rotation": [0.7071068286895752, 0, 0, 0.7071067094802856]
    }
  ],
  "materials": [
    {
      "doubleSided": true,
      "alphaMode": "MASK",
      "alphaCutoff": 0.5,
      "name": "Material01",
      "pbrMetallicRoughness": {
        "baseColorTexture": {
          "index": 0
        },
        "metallicFactor": 0
      }
    },
    {
      "doubleSided": true,
      "name": "Material02",
      "pbrMetallicRoughness": {
        "baseColorFactor": [1, 1, 1, 0.10000000149011612],
        "baseColorTexture": {
          "index": 1
        },
        "metallicFactor": 0
      }
    }
  ],
  "meshes": [
    {
      "name": "palm02",
      "primitives": [
        {
          "attributes": {
            "POSITION": 0,
            "NORMAL": 1,
            "TEXCOORD_0": 2
          },
          "indices": 3,
          "material": 0
        },
        {
          "attributes": {
            "POSITION": 4,
            "NORMAL": 5,
            "TEXCOORD_0": 6
          },
          "indices": 7,
          "material": 1
        }
      ]
    }
  ],
  "textures": [
    {
      "sampler": 0,
      "source": 0
    },
    {
      "sampler": 0,
      "source": 1
    }
  ],
  "images": [
    {
      "bufferView": 4,
      "mimeType": "image/png",
      "name": "leaf"
    },
    {
      "bufferView": 9,
      "mimeType": "image/jpeg",
      "name": "trunk"
    }
  ],
  "accessors": [
    {
      "bufferView": 0,
      "componentType": 5126,
      "count": 110,
      "max": [28.140453338623047, 36.845436096191406, -36.17189025878906],
      "min": [-31.2150936126709, -21.817638397216797, -67.81816101074219],
      "type": "VEC3"
    },
    {
      "bufferView": 1,
      "componentType": 5126,
      "count": 110,
      "type": "VEC3"
    },
    {
      "bufferView": 2,
      "componentType": 5126,
      "count": 110,
      "type": "VEC2"
    },
    {
      "bufferView": 3,
      "componentType": 5123,
      "count": 330,
      "type": "SCALAR"
    },
    {
      "bufferView": 5,
      "componentType": 5126,
      "count": 41,
      "max": [3.668034076690674, 8.322426795959473, 8.186817169189453],
      "min": [-3.668034076690674, -3.246037006378174, -53.92488479614258],
      "type": "VEC3"
    },
    {
      "bufferView": 6,
      "componentType": 5126,
      "count": 41,
      "type": "VEC3"
    },
    {
      "bufferView": 7,
      "componentType": 5126,
      "count": 41,
      "type": "VEC2"
    },
    {
      "bufferView": 8,
      "componentType": 5123,
      "count": 168,
      "type": "SCALAR"
    }
  ],
  "bufferViews": [
    {
      "buffer": 0,
      "byteLength": 1320,
      "byteOffset": 0
    },
    {
      "buffer": 0,
      "byteLength": 1320,
      "byteOffset": 1320
    },
    {
      "buffer": 0,
      "byteLength": 880,
      "byteOffset": 2640
    },
    {
      "buffer": 0,
      "byteLength": 660,
      "byteOffset": 3520
    },
    {
      "buffer": 0,
      "byteLength": 1359749,
      "byteOffset": 4180
    },
    {
      "buffer": 0,
      "byteLength": 492,
      "byteOffset": 1363932
    },
    {
      "buffer": 0,
      "byteLength": 492,
      "byteOffset": 1364424
    },
    {
      "buffer": 0,
      "byteLength": 328,
      "byteOffset": 1364916
    },
    {
      "buffer": 0,
      "byteLength": 336,
      "byteOffset": 1365244
    },
    {
      "buffer": 0,
      "byteLength": 57324,
      "byteOffset": 1365580
    }
  ],
  "samplers": [
    {
      "magFilter": 9729,
      "minFilter": 9987
    }
  ],
  "buffers": [
    {
      "byteLength": 1422904,
      "uri": "data:application/octet-stream;base64,"
    }
  ]
}
