{
    "asset" : {
        "generator" : "Khronos glTF Blender I/O v1.6.16",
        "version" : "2.0"
    },
    "scene" : 0,
    "scenes" : [
        {
            "name" : "Scene",
            "nodes" : [
                0
            ]
        }
    ],
    "nodes" : [
        {
            "mesh" : 0,
            "name" : "palm01",
            "rotation" : [
                0.7071068286895752,
                0,
                0,
                0.7071067094802856
            ]
        }
    ],
    "materials" : [
        {
            "doubleSided" : true,
            "name" : "Material01",
            "pbrMetallicRoughness" : {
                "baseColorTexture" : {
                    "index" : 0
                },
                "metallicFactor" : 0
            }
        },
        {
            "doubleSided" : true,
            "name" : "Material02",
            "pbrMetallicRoughness" : {
                "baseColorTexture" : {
                    "index" : 1
                },
                "metallicFactor" : 0
            }
        }
    ],
    "meshes" : [
        {
            "name" : "palm01",
            "primitives" : [
                {
                    "attributes" : {
                        "POSITION" : 0,
                        "NORMAL" : 1,
                        "TEXCOORD_0" : 2
                    },
                    "indices" : 3,
                    "material" : 0
                },
                {
                    "attributes" : {
                        "POSITION" : 4,
                        "NORMAL" : 5,
                        "TEXCOORD_0" : 6
                    },
                    "indices" : 7,
                    "material" : 1
                }
            ]
        }
    ],
    "textures" : [
        {
            "sampler" : 0,
            "source" : 0
        },
        {
            "sampler" : 0,
            "source" : 1
        }
    ],
    "images" : [
        {
            "mimeType" : "image/png",
            "name" : "leaf02_a",
            "uri" : "leaf02_a.png"
        },
        {
            "mimeType" : "image/jpeg",
            "name" : "trunk01",
            "uri" : "trunk01.jpg"
        }
    ],
    "accessors" : [
        {
            "bufferView" : 0,
            "componentType" : 5126,
            "count" : 176,
            "max" : [
                38.96071243286133,
                49.82746505737305,
                -28.024513244628906
            ],
            "min" : [
                -40.07505416870117,
                -35.964195251464844,
                -71.13346099853516
            ],
            "type" : "VEC3"
        },
        {
            "bufferView" : 1,
            "componentType" : 5126,
            "count" : 176,
            "type" : "VEC3"
        },
        {
            "bufferView" : 2,
            "componentType" : 5126,
            "count" : 176,
            "type" : "VEC2"
        },
        {
            "bufferView" : 3,
            "componentType" : 5123,
            "count" : 528,
            "type" : "SCALAR"
        },
        {
            "bufferView" : 4,
            "componentType" : 5126,
            "count" : 41,
            "max" : [
                3.668034076690674,
                8.322426795959473,
                8.186817169189453
            ],
            "min" : [
                -3.668034076690674,
                -3.246037006378174,
                -53.92488479614258
            ],
            "type" : "VEC3"
        },
        {
            "bufferView" : 5,
            "componentType" : 5126,
            "count" : 41,
            "type" : "VEC3"
        },
        {
            "bufferView" : 6,
            "componentType" : 5126,
            "count" : 41,
            "type" : "VEC2"
        },
        {
            "bufferView" : 7,
            "componentType" : 5123,
            "count" : 168,
            "type" : "SCALAR"
        }
    ],
    "bufferViews" : [
        {
            "buffer" : 0,
            "byteLength" : 2112,
            "byteOffset" : 0
        },
        {
            "buffer" : 0,
            "byteLength" : 2112,
            "byteOffset" : 2112
        },
        {
            "buffer" : 0,
            "byteLength" : 1408,
            "byteOffset" : 4224
        },
        {
            "buffer" : 0,
            "byteLength" : 1056,
            "byteOffset" : 5632
        },
        {
            "buffer" : 0,
            "byteLength" : 492,
            "byteOffset" : 6688
        },
        {
            "buffer" : 0,
            "byteLength" : 492,
            "byteOffset" : 7180
        },
        {
            "buffer" : 0,
            "byteLength" : 328,
            "byteOffset" : 7672
        },
        {
            "buffer" : 0,
            "byteLength" : 336,
            "byteOffset" : 8000
        }
    ],
    "samplers" : [
        {
            "magFilter" : 9729,
            "minFilter" : 9987
        }
    ],
    "buffers" : [
        {
            "byteLength" : 8336,
            "uri" : "palm-01.bin"
        }
    ]
}
