{
  "asset": {
    "generator": "Khronos glTF Blender I/O v1.6.16",
    "version": "2.0"
  },
  "scene": 0,
  "scenes": [
    {
      "name": "Scene",
      "nodes": [0]
    }
  ],
  "nodes": [
    {
      "mesh": 0,
      "name": "palm06",
      "rotation": [0.7071068286895752, 0, 0, 0.7071067094802856]
    }
  ],
  "materials": [
    {
      "doubleSided": true,
      "name": "ballwood",
      "pbrMetallicRoughness": {
        "baseColorTexture": {
          "index": 0
        },
        "metallicFactor": 0
      }
    },
    {
      "doubleSided": true,
      "alphaMode": "MASK",
      "alphaCutoff": 0.5,
      "name": "leaf",
      "pbrMetallicRoughness": {
        "baseColorTexture": {
          "index": 1
        },
        "metallicFactor": 0
      }
    }
  ],
  "meshes": [
    {
      "name": "palm06",
      "primitives": [
        {
          "attributes": {
            "POSITION": 0,
            "NORMAL": 1,
            "TEXCOORD_0": 2
          },
          "indices": 3,
          "material": 0
        },
        {
          "attributes": {
            "POSITION": 4,
            "NORMAL": 5,
            "TEXCOORD_0": 6
          },
          "indices": 7,
          "material": 1
        }
      ]
    }
  ],
  "textures": [
    {
      "sampler": 0,
      "source": 0
    },
    {
      "sampler": 0,
      "source": 1
    }
  ],
  "images": [
    {
      "bufferView": 4,
      "mimeType": "image/jpeg",
      "name": "struc1"
    },
    {
      "bufferView": 9,
      "mimeType": "image/png",
      "name": "leaf05"
    }
  ],
  "accessors": [
    {
      "bufferView": 0,
      "componentType": 5126,
      "count": 79,
      "max": [6.485467910766602, 5.940960884094238, 19.492469787597656],
      "min": [-5.818803787231445, -5.794637203216553, -96.19503784179688],
      "type": "VEC3"
    },
    {
      "bufferView": 1,
      "componentType": 5126,
      "count": 79,
      "type": "VEC3"
    },
    {
      "bufferView": 2,
      "componentType": 5126,
      "count": 79,
      "type": "VEC2"
    },
    {
      "bufferView": 3,
      "componentType": 5123,
      "count": 300,
      "type": "SCALAR"
    },
    {
      "bufferView": 5,
      "componentType": 5126,
      "count": 144,
      "max": [33.03956604003906, 31.0620174407959, -85.88695526123047],
      "min": [-32.12239074707031, -32.40108871459961, -127.14710998535156],
      "type": "VEC3"
    },
    {
      "bufferView": 6,
      "componentType": 5126,
      "count": 144,
      "type": "VEC3"
    },
    {
      "bufferView": 7,
      "componentType": 5126,
      "count": 144,
      "type": "VEC2"
    },
    {
      "bufferView": 8,
      "componentType": 5123,
      "count": 216,
      "type": "SCALAR"
    }
  ],
  "bufferViews": [
    {
      "buffer": 0,
      "byteLength": 948,
      "byteOffset": 0
    },
    {
      "buffer": 0,
      "byteLength": 948,
      "byteOffset": 948
    },
    {
      "buffer": 0,
      "byteLength": 632,
      "byteOffset": 1896
    },
    {
      "buffer": 0,
      "byteLength": 600,
      "byteOffset": 2528
    },
    {
      "buffer": 0,
      "byteLength": 3316,
      "byteOffset": 3128
    },
    {
      "buffer": 0,
      "byteLength": 1728,
      "byteOffset": 6444
    },
    {
      "buffer": 0,
      "byteLength": 1728,
      "byteOffset": 8172
    },
    {
      "buffer": 0,
      "byteLength": 1152,
      "byteOffset": 9900
    },
    {
      "buffer": 0,
      "byteLength": 432,
      "byteOffset": 11052
    },
    {
      "buffer": 0,
      "byteLength": 287825,
      "byteOffset": 11484
    }
  ],
  "samplers": [
    {
      "magFilter": 9729,
      "minFilter": 9987
    }
  ],
  "buffers": [
    {
      "byteLength": 299312,
      "uri": "data:application/octet-stream;base64,"
    }
  ]
}
